<?xml version="1.0" encoding="UTF-8" standalone="no"?>
<!-- Created with Inkscape (http://www.inkscape.org/) -->

<svg
   width="24"
   height="24"
   viewBox="0 0 6.3499999 6.35"
   version="1.1"
   id="svg1"
   xmlns="http://www.w3.org/2000/svg"
   xmlns:svg="http://www.w3.org/2000/svg">
  <defs
     id="defs1">
    <clipPath
       clipPathUnits="userSpaceOnUse"
       id="clipPath5">
      <path
         d="M 0,500 H 500 V 0 H 0 Z"
         transform="translate(-272.70021,-230.82231)"
         id="path5" />
    </clipPath>
    <clipPath
       clipPathUnits="userSpaceOnUse"
       id="clipPath7-1">
      <path
         d="M 0,500 H 500 V 0 H 0 Z"
         transform="translate(-314.03641,-236.91701)"
         id="path7-1" />
    </clipPath>
    <clipPath
       clipPathUnits="userSpaceOnUse"
       id="clipPath9">
      <path
         d="M 0,500 H 500 V 0 H 0 Z"
         transform="translate(-260.73231,-278.19881)"
         id="path9" />
    </clipPath>
    <clipPath
       clipPathUnits="userSpaceOnUse"
       id="clipPath11-0">
      <path
         d="M 0,500 H 500 V 0 H 0 Z"
         transform="translate(-249.51271,-250.07091)"
         id="path11-1" />
    </clipPath>
    <clipPath
       clipPathUnits="userSpaceOnUse"
       id="clipPath21">
      <path
         d="M 0,500 H 500 V 0 H 0 Z"
         transform="translate(-176.45031,-277.2756)"
         id="path21-8" />
    </clipPath>
    <clipPath
       clipPathUnits="userSpaceOnUse"
       id="clipPath23-7">
      <path
         d="M 0,500 H 500 V 0 H 0 Z"
         transform="translate(-303.57601,-339.76561)"
         id="path23-6" />
    </clipPath>
    <clipPath
       clipPathUnits="userSpaceOnUse"
       id="clipPath25-0">
      <path
         d="M 0,500 H 500 V 0 H 0 Z"
         transform="translate(-297.895,-208.15791)"
         id="path25-0" />
    </clipPath>
    <clipPath
       clipPathUnits="userSpaceOnUse"
       id="clipPath27">
      <path
         d="M 0,500 H 500 V 0 H 0 Z"
         transform="translate(-284.59621,-234.006)"
         id="path27-9" />
    </clipPath>
    <clipPath
       clipPathUnits="userSpaceOnUse"
       id="clipPath29-5">
      <path
         d="M 0,500 H 500 V 0 H 0 Z"
         transform="translate(-230.00731,-230.02941)"
         id="path29-6" />
    </clipPath>
    <clipPath
       clipPathUnits="userSpaceOnUse"
       id="clipPath31-2">
      <path
         d="M 0,500 H 500 V 0 H 0 Z"
         transform="translate(-202.597,-270.07971)"
         id="path31-8" />
    </clipPath>
    <clipPath
       clipPathUnits="userSpaceOnUse"
       id="clipPath33">
      <path
         d="M 0,500 H 500 V 0 H 0 Z"
         transform="translate(-224.44641,-319.21961)"
         id="path33-5" />
    </clipPath>
    <clipPath
       clipPathUnits="userSpaceOnUse"
       id="clipPath35-9">
      <path
         d="M 0,500 H 500 V 0 H 0 Z"
         transform="translate(-279.0724,-322.62821)"
         id="path35-4" />
    </clipPath>
    <clipPath
       clipPathUnits="userSpaceOnUse"
       id="clipPath37-3">
      <path
         d="M 0,500 H 500 V 0 H 0 Z"
         transform="translate(-304.72341,-289.25291)"
         id="path37-9" />
    </clipPath>
    <clipPath
       clipPathUnits="userSpaceOnUse"
       id="clipPath39">
      <path
         d="M 0,500 H 500 V 0 H 0 Z"
         transform="translate(-222.66411,-349.13901)"
         id="path39-0" />
    </clipPath>
    <clipPath
       clipPathUnits="userSpaceOnUse"
       id="clipPath41-5">
      <path
         d="M 0,500 H 500 V 0 H 0 Z"
         transform="translate(-334.38851,-275.66601)"
         id="path41-6" />
    </clipPath>
    <clipPath
       clipPathUnits="userSpaceOnUse"
       id="clipPath43-3">
      <path
         d="M 0,500 H 500 V 0 H 0 Z"
         transform="translate(-209.40861,-211.4718)"
         id="path43-6" />
    </clipPath>
  </defs>
  <g
     id="layer1">
    <g
       id="g56"
       transform="matrix(0.02163285,0,0,0.02163285,-3.8606634,-3.2208325)">
      <g
         id="g55"
         transform="matrix(1.0680677,0,0,1.0680677,-28.544499,-22.431863)"
         style="fill:#ffffff;fill-opacity:1">
        <path
           id="path4-0"
           d="m 0,0 c -2.291,-1.83 -5.522,-1.93 -7.905,-0.22 -2.53,1.814 -5.741,2.683 -9.064,2.179 -3.963,-0.6 -7.193,-3.021 -8.985,-6.282 -0.745,-1.356 -2.421,-1.9 -3.861,-1.335 l -24.79,9.707 c -1.427,0.558 -2.25,2.113 -1.805,3.579 0.505,1.665 0.658,3.463 0.38,5.298 -0.851,5.619 -5.437,9.748 -10.853,10.247 l -1.126,0.099 c -1.647,0.144 -2.982,1.397 -3.229,3.031 l -3.214,21.213 c -0.429,2.83 0.87,5.661 3.329,7.128 4.387,2.617 6.989,7.702 6.177,13.066 -0.211,1.391 -0.637,2.695 -1.237,3.886 -0.921,1.826 -0.492,4.036 1.106,5.313 l 20.515,16.386 c 1.376,1.099 3.336,1.119 4.709,0.018 2.926,-2.347 6.78,-3.514 10.781,-2.908 3.265,0.495 6.09,2.087 8.161,4.343 1.745,1.902 4.499,2.497 6.903,1.556 L 6.92,88.109 c 2.049,-0.802 3.354,-2.749 3.497,-4.945 0.022,-0.335 0.058,-0.672 0.109,-1.01 0.796,-5.255 4.871,-9.191 9.831,-10.063 2.032,-0.358 3.619,-1.948 3.928,-3.988 l 3.69,-24.356 c 0.432,-2.852 -1.037,-5.583 -3.549,-7.001 -5.049,-2.851 -8.073,-8.603 -7.153,-14.678 0.101,-0.666 0.248,-1.315 0.435,-1.943 0.888,-2.981 -0.276,-6.201 -2.707,-8.143 z m 31.267,43.351 -3.948,26.055 c -0.269,1.776 0.459,3.583 1.941,4.596 3.994,2.729 6.17,7.75 4.906,12.882 -1.396,5.67 -6.872,9.591 -12.691,9.106 -2.999,-0.25 -5.613,-1.558 -7.548,-3.506 -1.58,-1.589 -3.914,-2.155 -6.001,-1.338 l -21.178,8.294 c -2.262,0.885 -3.883,2.984 -3.997,5.411 -0.043,0.912 -0.177,1.836 -0.415,2.765 -1.728,6.756 -8.432,11.292 -15.343,10.363 -7.733,-1.039 -13.085,-8.207 -11.921,-15.89 0.086,-0.571 0.206,-1.129 0.358,-1.671 0.413,-1.481 -0.032,-3.066 -1.234,-4.026 L -68.443,78.309 c -1.241,-0.991 -2.914,-1.175 -4.381,-0.564 -2.803,1.167 -6.059,1.373 -9.306,0.243 -5.066,-1.764 -8.562,-6.644 -8.611,-12.008 -0.054,-5.885 3.629,-10.628 8.58,-12.415 2.381,-0.859 4.024,-3.06 4.403,-5.563 l 3.41,-22.503 c 0.319,-2.107 -0.492,-4.181 -2.03,-5.655 -3.09,-2.962 -4.562,-7.5 -3.266,-12.084 1.444,-5.107 6.218,-8.738 11.525,-8.762 2.573,-0.011 4.899,0.751 6.818,2.036 1.281,0.858 2.884,1.076 4.32,0.514 l 27.577,-10.799 c 1.06,-0.415 1.818,-1.365 1.987,-2.491 0.982,-6.525 6.777,-11.452 13.35,-10.882 6.291,0.546 10.954,5.616 11.316,11.578 0.017,0.286 0.011,0.733 -0.02,1.247 -0.126,2.111 0.813,4.145 2.465,5.465 l 18.065,14.43 c 2.272,1.815 5.341,2.092 8.006,0.928 2.778,-1.213 5.977,-1.566 9.213,-0.773 6.662,1.634 11.327,7.975 10.904,14.821 -0.387,6.251 -4.602,11.172 -10.076,12.886 -2.42,0.758 -4.159,2.885 -4.539,5.393"
           style="fill:#ffffff;fill-opacity:1;fill-rule:nonzero;stroke:none"
           transform="matrix(1.3333333,0,0,-1.3333333,363.60027,358.9036)"
           clip-path="url(#clipPath5)" />
        <path
           id="path6"
           d="m 0,0 c -3.541,-2.14 -6.13,-5.617 -7.261,-9.597 -0.653,-2.298 -0.732,-4.42 -0.424,-6.38 0.351,-2.233 -0.898,-4.41 -2.969,-5.315 l -42.449,-18.56 c -2.139,-0.935 -4.58,-0.01 -5.689,2.044 -3.332,6.172 -10.282,9.894 -17.615,8.783 -4.33,-0.656 -8.029,-2.884 -10.614,-6.015 -1.46,-1.77 -4.095,-2.007 -5.942,-0.645 l -39.091,28.803 c -1.31,0.966 -1.625,2.752 -0.804,4.157 1.571,2.691 2.267,5.915 1.764,9.235 -0.904,5.968 -5.42,10.482 -10.988,11.683 -1.553,0.335 -2.627,1.746 -2.45,3.324 l 5.414,48.392 c 0.278,2.482 2.394,4.381 4.89,4.308 1.974,-0.057 4.013,0.234 6.054,0.942 6.832,2.371 11.475,9.015 11.337,16.246 -0.033,1.741 -0.32,3.399 -0.82,4.948 -0.729,2.26 0.434,4.699 2.61,5.651 l 42.451,18.56 c 1.627,0.711 3.572,0.227 4.576,-1.238 3.106,-4.531 8.614,-7.15 14.411,-6.271 3.094,0.468 5.815,1.865 7.929,3.864 1.65,1.56 4.156,1.765 5.985,0.417 L -0.284,88.297 c 2.02,-1.489 2.529,-4.29 1.165,-6.397 -2.08,-3.216 -3.041,-7.172 -2.422,-11.258 1.047,-6.911 6.297,-12.141 12.759,-13.495 2.19,-0.459 3.72,-2.431 3.471,-4.655 L 9.502,6.135 C 9.263,3.999 7.599,2.339 5.474,2.013 3.671,1.736 1.835,1.109 0,0 M 30.543,76.188 C 29.112,83.593 22.561,89.127 15.023,89.354 13.195,89.409 11.467,89.159 9.859,88.668 7.628,87.987 5.212,88.352 3.334,89.736 l -42.678,31.447 c -1.411,1.04 -2.061,2.778 -1.822,4.514 0.296,2.137 0.129,4.394 -0.611,6.654 -2.015,6.154 -7.989,10.342 -14.462,10.133 -7.349,-0.239 -13.015,-5.604 -14.171,-12.261 -0.067,-0.383 -0.1,-0.886 -0.112,-1.425 -0.052,-2.314 -1.489,-4.371 -3.609,-5.298 l -43.506,-19.021 c -2.101,-0.919 -4.562,-0.771 -6.44,0.544 -3.812,2.67 -8.721,3.786 -13.712,2.584 -7.833,-1.887 -13.341,-9.272 -12.908,-17.317 0.271,-5.048 2.667,-9.359 6.209,-12.244 1.646,-1.342 2.578,-3.368 2.342,-5.479 l -5.769,-51.554 c -0.182,-1.628 -1.241,-3.008 -2.745,-3.655 -5.952,-2.561 -9.599,-9.008 -8.261,-15.737 1.394,-7.013 8.066,-11.967 15.185,-11.295 1.633,0.154 3.162,0.584 4.558,1.23 1.376,0.636 2.981,0.51 4.201,-0.389 l 40.888,-30.128 c 2.081,-1.534 3.2,-4 3.143,-6.584 -0.039,-1.759 0.194,-3.568 0.736,-5.38 2.161,-7.227 9.033,-12.252 16.575,-12.119 8.885,0.157 15.695,6.787 16.751,14.887 0.256,1.96 1.439,3.674 3.249,4.465 l 45.156,19.743 c 1.839,0.804 4.001,0.464 5.447,-0.928 3.969,-3.819 9.875,-5.517 15.784,-3.632 6.378,2.034 10.828,8.102 10.855,14.797 0.026,6.331 -3.515,11.546 -8.52,14.134 -1.68,0.869 -2.591,2.745 -2.381,4.625 l 5.547,49.567 c 0.168,1.506 1.113,2.838 2.513,3.414 6.976,2.87 11.286,10.347 9.777,18.16"
           style="fill:#ffffff;fill-opacity:1;fill-rule:nonzero;stroke:none"
           transform="matrix(1.3333333,0,0,-1.3333333,416.798,350.77733)"
           clip-path="url(#clipPath7-1)" />
        <path
           id="path8"
           d="m 0,0 c 0.952,-6.286 -3.371,-12.154 -9.658,-13.107 -6.286,-0.952 -12.154,3.372 -13.106,9.658 -0.953,6.286 3.371,12.154 9.657,13.107 C -6.821,10.61 -0.953,6.286 0,0"
           style="fill:#ffffff;fill-opacity:1;fill-rule:nonzero;stroke:none"
           transform="matrix(1.3333333,0,0,-1.3333333,347.64307,295.73493)"
           clip-path="url(#clipPath9)" />
        <path
           id="path10-8"
           d="m 0,0 c -1.044,-0.123 -2.065,0.414 -2.524,1.36 -1.271,2.619 -3.672,4.66 -6.73,5.36 -3.068,0.702 -6.124,-0.1 -8.41,-1.917 -0.633,-0.504 -1.57,-0.326 -2.022,0.345 l -4.846,7.191 c -0.624,0.925 -0.628,2.177 0.088,3.032 0.642,0.768 1.119,1.693 1.358,2.736 0.486,2.123 -0.117,4.237 -1.439,5.767 -0.743,0.859 -1.033,2.018 -0.732,3.114 l 3.262,11.889 c 0.373,1.359 1.505,2.326 2.88,2.635 3.131,0.703 5.74,3.134 6.504,6.471 0.147,0.639 0.217,1.278 0.219,1.907 0.002,1.361 1.049,2.489 2.403,2.619 l 9.308,0.894 c 0.983,0.095 1.959,-0.353 2.47,-1.198 0.935,-1.542 2.465,-2.719 4.361,-3.154 1.734,-0.397 3.464,-0.103 4.905,0.699 0.895,0.499 2.011,0.32 2.679,-0.457 l 6.574,-7.651 c 1.594,-1.855 1.957,-4.491 0.856,-6.674 -0.288,-0.571 -0.512,-1.185 -0.661,-1.836 -0.676,-2.949 0.353,-5.89 2.438,-7.793 1.189,-1.086 1.668,-2.745 1.184,-4.281 L 21.489,12.7 C 21.093,11.447 20.013,10.581 18.726,10.317 15.842,9.725 13.424,7.513 12.724,4.456 L 12.718,4.426 C 12.308,2.621 10.806,1.271 8.969,1.055 Z m 23.558,13.046 2.66,7.571 c 0.493,1.405 1.702,2.495 3.18,2.679 3.375,0.419 6.271,2.951 6.952,6.518 0.799,4.184 -1.946,8.411 -6.092,9.39 -0.548,0.129 -1.095,0.2 -1.635,0.215 -1.708,0.05 -3.325,0.772 -4.46,2.049 l -9.445,10.623 c -0.407,0.457 -0.558,1.087 -0.401,1.689 0.914,3.505 -0.865,7.251 -4.259,8.514 C 7.926,63.088 5.408,62.65 3.532,61.417 2.58,60.791 1.766,59.937 1.272,58.904 0.715,57.739 0.237,56.768 -1.22,56.576 l -11.335,-1.492 c -0.86,-0.113 -1.7,0.218 -2.305,0.839 -1.205,1.235 -2.793,2.124 -4.641,2.453 -4.22,0.749 -8.482,-1.86 -9.725,-5.962 -1.071,-3.537 0.227,-7.148 2.899,-9.259 1.122,-0.887 1.526,-2.412 1.131,-3.787 l -3.157,-11.011 c -0.336,-1.173 -1.277,-2.097 -2.473,-2.343 -2.731,-0.562 -4.969,-2.838 -5.233,-5.913 -0.243,-2.825 1.451,-5.565 4.083,-6.621 0.985,-0.396 1.987,-0.535 2.949,-0.464 1.05,0.079 2.062,-0.396 2.575,-1.315 l 4.794,-8.576 c 0.641,-1.147 0.817,-2.492 0.508,-3.77 -0.149,-0.616 -0.242,-1.26 -0.272,-1.929 -0.196,-4.381 2.628,-8.472 6.791,-9.848 5.658,-1.87 11.559,1.55 12.861,7.236 0.237,1.043 1.083,1.837 2.139,2.009 l 10.697,1.739 c 1.301,0.212 2.664,-0.174 3.563,-1.139 1.012,-1.086 2.344,-1.894 3.898,-2.256 4.011,-0.935 8.201,1.577 9.259,5.558 0.851,3.205 -0.426,6.436 -2.924,8.259 -1.279,0.934 -1.829,2.568 -1.304,4.062"
           style="fill:#ffffff;fill-opacity:1;fill-rule:nonzero;stroke:none"
           transform="matrix(1.3333333,0,0,-1.3333333,332.6836,333.2388)"
           clip-path="url(#clipPath11-0)" />
        <path
           id="path20-4"
           d="m 0,0 c 0,-3.729 -3.023,-6.751 -6.751,-6.751 -3.729,0 -6.752,3.022 -6.752,6.751 0,3.729 3.023,6.751 6.752,6.751 C -3.023,6.751 0,3.729 0,0"
           style="fill:#ffffff;fill-opacity:1;fill-rule:nonzero;stroke:none"
           transform="matrix(1.3333333,0,0,-1.3333333,235.26707,296.96587)"
           clip-path="url(#clipPath21)" />
        <path
           id="path22-0"
           d="m 0,0 c 0,-3.973 -3.22,-7.193 -7.193,-7.193 -3.972,0 -7.193,3.22 -7.193,7.193 0,3.973 3.221,7.193 7.193,7.193 C -3.22,7.193 0,3.973 0,0"
           style="fill:#ffffff;fill-opacity:1;fill-rule:nonzero;stroke:none"
           transform="matrix(1.3333333,0,0,-1.3333333,404.768,213.64587)"
           clip-path="url(#clipPath23-7)" />
        <path
           id="path24-4"
           d="m 0,0 c 0,-3.973 -3.22,-7.193 -7.193,-7.193 -3.972,0 -7.193,3.22 -7.193,7.193 0,3.973 3.221,7.193 7.193,7.193 C -3.22,7.193 0,3.973 0,0"
           style="fill:#ffffff;fill-opacity:1;fill-rule:nonzero;stroke:none"
           transform="matrix(1.3333333,0,0,-1.3333333,397.19333,389.1228)"
           clip-path="url(#clipPath25-0)" />
        <path
           id="path26-6"
           d="m 0,0 c 0,-2.903 -2.353,-5.256 -5.256,-5.256 -2.903,0 -5.256,2.353 -5.256,5.256 0,2.903 2.353,5.256 5.256,5.256 C -2.353,5.256 0,2.903 0,0"
           style="fill:#ffffff;fill-opacity:1;fill-rule:nonzero;stroke:none"
           transform="matrix(1.3333333,0,0,-1.3333333,379.4616,354.65867)"
           clip-path="url(#clipPath27)" />
        <path
           id="path28-4"
           d="m 0,0 c 0,-2.717 -2.203,-4.92 -4.92,-4.92 -2.717,0 -4.919,2.203 -4.919,4.92 0,2.717 2.202,4.92 4.919,4.92 C -2.203,4.92 0,2.717 0,0"
           style="fill:#ffffff;fill-opacity:1;fill-rule:nonzero;stroke:none"
           transform="matrix(1.3333333,0,0,-1.3333333,306.6764,359.9608)"
           clip-path="url(#clipPath29-5)" />
        <path
           id="path30-6"
           d="m 0,0 c 0,-2.717 -2.203,-4.92 -4.92,-4.92 -2.717,0 -4.919,2.203 -4.919,4.92 0,2.717 2.202,4.92 4.919,4.92 C -2.203,4.92 0,2.717 0,0"
           style="fill:#ffffff;fill-opacity:1;fill-rule:nonzero;stroke:none"
           transform="matrix(1.3333333,0,0,-1.3333333,270.12933,306.5604)"
           clip-path="url(#clipPath31-2)" />
        <path
           id="path32-4"
           d="m 0,0 c 0,-3.097 -2.511,-5.608 -5.608,-5.608 -3.097,0 -5.607,2.511 -5.607,5.608 0,3.097 2.51,5.608 5.607,5.608 C -2.511,5.608 0,3.097 0,0"
           style="fill:#ffffff;fill-opacity:1;fill-rule:nonzero;stroke:none"
           transform="matrix(1.3333333,0,0,-1.3333333,299.26187,241.04053)"
           clip-path="url(#clipPath33)" />
        <path
           id="path34-3"
           d="m 0,0 c 0,-2.833 -2.296,-5.129 -5.129,-5.129 -2.832,0 -5.129,2.296 -5.129,5.129 0,2.832 2.297,5.129 5.129,5.129 C -2.296,5.129 0,2.832 0,0"
           style="fill:#ffffff;fill-opacity:1;fill-rule:nonzero;stroke:none"
           transform="matrix(1.3333333,0,0,-1.3333333,372.09653,236.49573)"
           clip-path="url(#clipPath35-9)" />
        <path
           id="path36-8"
           d="m 0,0 c 0,-2.567 -2.081,-4.648 -4.648,-4.648 -2.567,0 -4.647,2.081 -4.647,4.648 0,2.567 2.08,4.648 4.647,4.648 C -2.081,4.648 0,2.567 0,0"
           style="fill:#ffffff;fill-opacity:1;fill-rule:nonzero;stroke:none"
           transform="matrix(1.3333333,0,0,-1.3333333,406.29787,280.99613)"
           clip-path="url(#clipPath37-3)" />
        <path
           id="path38-4"
           d="m 0,0 c 0,-3.054 -2.476,-5.53 -5.53,-5.53 -3.054,0 -5.529,2.476 -5.529,5.53 0,3.054 2.475,5.53 5.529,5.53 C -2.476,5.53 0,3.054 0,0"
           style="fill:#ffffff;fill-opacity:1;fill-rule:nonzero;stroke:none"
           transform="matrix(1.3333333,0,0,-1.3333333,296.88547,201.148)"
           clip-path="url(#clipPath39)" />
        <path
           id="path40-0"
           d="m 0,0 c 0,-3.054 -2.476,-5.53 -5.53,-5.53 -3.053,0 -5.529,2.476 -5.529,5.53 0,3.054 2.476,5.53 5.529,5.53 C -2.476,5.53 0,3.054 0,0"
           style="fill:#ffffff;fill-opacity:1;fill-rule:nonzero;stroke:none"
           transform="matrix(1.3333333,0,0,-1.3333333,445.85133,299.112)"
           clip-path="url(#clipPath41-5)" />
        <path
           id="path42-0"
           d="m 0,0 c 0,-3.054 -2.476,-5.53 -5.53,-5.53 -3.054,0 -5.529,2.476 -5.529,5.53 0,3.054 2.475,5.529 5.529,5.529 C -2.476,5.529 0,3.054 0,0"
           style="fill:#ffffff;fill-opacity:1;fill-rule:nonzero;stroke:none"
           transform="matrix(1.3333333,0,0,-1.3333333,279.21147,384.70427)"
           clip-path="url(#clipPath43-3)" />
      </g>
    </g>
  </g>
</svg>
